<svg xmlns="http://www.w3.org/2000/svg" viewBox="-24 0 128 112">
  <defs>
    <radialGradient id="thx" cx="45%" cy="38%" r="65%"><stop offset="0" stop-color="#e2b25e"/><stop offset=".55" stop-color="#b57a2c"/><stop offset="1" stop-color="#5a3512"/></radialGradient>
    <linearGradient id="amb" x1="0" y1="0" x2="1" y2="0"><stop offset="0" stop-color="#8f5d1d"/><stop offset=".3" stop-color="#e2ab3e"/><stop offset=".7" stop-color="#d69a30"/><stop offset="1" stop-color="#7f5017"/></linearGradient>
    <linearGradient id="drk" x1="0" y1="0" x2="1" y2="0"><stop offset="0" stop-color="#120a04"/><stop offset=".5" stop-color="#34210e"/><stop offset="1" stop-color="#120a04"/></linearGradient>
    <radialGradient id="head" cx="45%" cy="35%" r="70%"><stop offset="0" stop-color="#4e3418"/><stop offset="1" stop-color="#150d04"/></radialGradient>
    <linearGradient id="wing" x1="0" y1="0" x2="1" y2="1"><stop offset="0" stop-color="#ffffff" stop-opacity=".70"/><stop offset=".5" stop-color="#e6eef9" stop-opacity=".40"/><stop offset="1" stop-color="#cdd9ec" stop-opacity=".30"/></linearGradient>
  </defs>
  <g class="bee-body">
  <g class="legs" fill="none" stroke="#2c1a09" stroke-width="1.3" stroke-linecap="round">
    <path d="M33 33 L23 28 L17 20"/><path d="M47 33 L57 28 L63 20"/>
    <path d="M31 39 L19 40 L12 47"/><path d="M49 39 L61 40 L68 47"/>
    <path d="M32 45 L22 54 L18 66"/><path d="M48 45 L58 54 L62 66"/>
  </g>
  <g fill="url(#amb)"><polygon points="40.00,47.00 42.10,47.75 43.23,48.50 44.14,49.25 44.94,50.00 45.66,50.75 46.32,51.50 46.93,52.25 47.50,53.00 48.04,53.75 48.54,54.50 49.02,55.25 49.47,56.00 49.90,56.75 50.31,57.50 50.70,58.25 51.07,59.00 51.41,59.75 51.74,60.50 52.06,61.25 52.35,62.00 52.63,62.75 52.88,63.50 53.13,64.25 53.35,65.00 53.56,65.75 53.76,66.50 53.94,67.25 54.10,68.00 54.25,68.75 54.38,69.50 54.50,70.25 54.60,71.00 54.68,71.75 54.75,72.50 54.81,73.25 54.85,74.00 54.88,74.75 54.89,75.50 54.88,76.25 54.87,77.00 54.83,77.75 54.79,78.50 54.72,79.25 54.65,80.00 54.56,80.75 54.45,81.50 54.33,82.25 54.20,83.00 54.05,83.75 53.88,84.50 53.70,85.25 53.51,86.00 53.30,86.75 53.08,87.50 52.85,88.25 52.60,89.00 52.33,89.75 52.05,90.50 51.75,91.25 51.44,92.00 51.11,92.75 50.77,93.50 50.41,94.25 50.03,95.00 49.64,95.75 49.23,96.50 48.79,97.25 48.34,98.00 47.87,98.75 47.37,99.50 46.84,100.25 46.28,101.00 45.68,101.75 45.04,102.50 44.34,103.25 43.56,104.00 42.66,104.75 41.51,105.50 40.00,106.00 40.00,106.00 38.49,105.50 37.34,104.75 36.44,104.00 35.66,103.25 34.96,102.50 34.32,101.75 33.72,101.00 33.16,100.25 32.63,99.50 32.13,98.75 31.66,98.00 31.21,97.25 30.77,96.50 30.36,95.75 29.97,95.00 29.59,94.25 29.23,93.50 28.89,92.75 28.56,92.00 28.25,91.25 27.95,90.50 27.67,89.75 27.40,89.00 27.15,88.25 26.92,87.50 26.70,86.75 26.49,86.00 26.30,85.25 26.12,84.50 25.95,83.75 25.80,83.00 25.67,82.25 25.55,81.50 25.44,80.75 25.35,80.00 25.28,79.25 25.21,78.50 25.17,77.75 25.13,77.00 25.12,76.25 25.11,75.50 25.12,74.75 25.15,74.00 25.19,73.25 25.25,72.50 25.32,71.75 25.40,71.00 25.50,70.25 25.62,69.50 25.75,68.75 25.90,68.00 26.06,67.25 26.24,66.50 26.44,65.75 26.65,65.00 26.87,64.25 27.12,63.50 27.37,62.75 27.65,62.00 27.94,61.25 28.26,60.50 28.59,59.75 28.93,59.00 29.30,58.25 29.69,57.50 30.10,56.75 30.53,56.00 30.98,55.25 31.46,54.50 31.96,53.75 32.50,53.00 33.07,52.25 33.68,51.50 34.34,50.75 35.06,50.00 35.86,49.25 36.77,48.50 37.90,47.75 40.00,47.00"/></g>
  <g fill="url(#drk)"><polygon points="47.50,53.00 48.04,53.75 48.54,54.50 49.02,55.25 49.47,56.00 49.90,56.75 50.31,57.50 50.70,58.25 50.82,58.50 29.18,58.50 29.30,58.25 29.69,57.50 30.10,56.75 30.53,56.00 30.98,55.25 31.46,54.50 31.96,53.75 32.50,53.00"/><polygon points="53.05,64.00 53.28,64.75 53.50,65.50 53.70,66.25 53.88,67.00 54.05,67.75 54.20,68.50 54.34,69.25 54.46,70.00 54.56,70.75 54.60,71.00 25.40,71.00 25.44,70.75 25.54,70.00 25.66,69.25 25.80,68.50 25.95,67.75 26.12,67.00 26.30,66.25 26.50,65.50 26.72,64.75 26.95,64.00"/><polygon points="54.87,77.00 54.83,77.75 54.79,78.50 54.72,79.25 54.65,80.00 54.56,80.75 54.45,81.50 54.33,82.25 54.20,83.00 54.05,83.75 53.88,84.50 53.77,85.00 26.23,85.00 26.12,84.50 25.95,83.75 25.80,83.00 25.67,82.25 25.55,81.50 25.44,80.75 25.35,80.00 25.28,79.25 25.21,78.50 25.17,77.75 25.13,77.00"/><polygon points="52.24,90.00 51.95,90.75 51.65,91.50 51.33,92.25 51.00,93.00 50.65,93.75 50.29,94.50 49.91,95.25 49.50,96.00 49.09,96.75 48.65,97.50 48.19,98.25 47.70,99.00 47.19,99.75 46.65,100.50 46.08,101.25 45.47,102.00 44.81,102.75 44.09,103.50 43.28,104.25 42.32,105.00 40.98,105.75 40.00,106.00 40.00,106.00 39.02,105.75 37.68,105.00 36.72,104.25 35.91,103.50 35.19,102.75 34.53,102.00 33.92,101.25 33.35,100.50 32.81,99.75 32.30,99.00 31.81,98.25 31.35,97.50 30.91,96.75 30.50,96.00 30.09,95.25 29.71,94.50 29.35,93.75 29.00,93.00 28.67,92.25 28.35,91.50 28.05,90.75 27.76,90.00"/></g>
  <g fill="none" stroke="#f3d79a" stroke-opacity=".35" stroke-width=".6"><path d="M33.5 53.0 Q40 51.8 46.5 53.0"/><path d="M28.0 64.0 Q40 62.8 52.0 64.0"/><path d="M26.1 77.0 Q40 75.8 53.9 77.0"/><path d="M28.8 90.0 Q40 88.8 51.2 90.0"/></g>
  <path d="M40 48 C47 52 49 72 44 100" stroke="#fff" stroke-opacity=".09" stroke-width="2.2" fill="none" stroke-linecap="round"/>
  <g fill="none" stroke="#1a1006" stroke-width=".9"><polygon points="40.00,47.00 42.10,47.75 43.23,48.50 44.14,49.25 44.94,50.00 45.66,50.75 46.32,51.50 46.93,52.25 47.50,53.00 48.04,53.75 48.54,54.50 49.02,55.25 49.47,56.00 49.90,56.75 50.31,57.50 50.70,58.25 51.07,59.00 51.41,59.75 51.74,60.50 52.06,61.25 52.35,62.00 52.63,62.75 52.88,63.50 53.13,64.25 53.35,65.00 53.56,65.75 53.76,66.50 53.94,67.25 54.10,68.00 54.25,68.75 54.38,69.50 54.50,70.25 54.60,71.00 54.68,71.75 54.75,72.50 54.81,73.25 54.85,74.00 54.88,74.75 54.89,75.50 54.88,76.25 54.87,77.00 54.83,77.75 54.79,78.50 54.72,79.25 54.65,80.00 54.56,80.75 54.45,81.50 54.33,82.25 54.20,83.00 54.05,83.75 53.88,84.50 53.70,85.25 53.51,86.00 53.30,86.75 53.08,87.50 52.85,88.25 52.60,89.00 52.33,89.75 52.05,90.50 51.75,91.25 51.44,92.00 51.11,92.75 50.77,93.50 50.41,94.25 50.03,95.00 49.64,95.75 49.23,96.50 48.79,97.25 48.34,98.00 47.87,98.75 47.37,99.50 46.84,100.25 46.28,101.00 45.68,101.75 45.04,102.50 44.34,103.25 43.56,104.00 42.66,104.75 41.51,105.50 40.00,106.00 40.00,106.00 38.49,105.50 37.34,104.75 36.44,104.00 35.66,103.25 34.96,102.50 34.32,101.75 33.72,101.00 33.16,100.25 32.63,99.50 32.13,98.75 31.66,98.00 31.21,97.25 30.77,96.50 30.36,95.75 29.97,95.00 29.59,94.25 29.23,93.50 28.89,92.75 28.56,92.00 28.25,91.25 27.95,90.50 27.67,89.75 27.40,89.00 27.15,88.25 26.92,87.50 26.70,86.75 26.49,86.00 26.30,85.25 26.12,84.50 25.95,83.75 25.80,83.00 25.67,82.25 25.55,81.50 25.44,80.75 25.35,80.00 25.28,79.25 25.21,78.50 25.17,77.75 25.13,77.00 25.12,76.25 25.11,75.50 25.12,74.75 25.15,74.00 25.19,73.25 25.25,72.50 25.32,71.75 25.40,71.00 25.50,70.25 25.62,69.50 25.75,68.75 25.90,68.00 26.06,67.25 26.24,66.50 26.44,65.75 26.65,65.00 26.87,64.25 27.12,63.50 27.37,62.75 27.65,62.00 27.94,61.25 28.26,60.50 28.59,59.75 28.93,59.00 29.30,58.25 29.69,57.50 30.10,56.75 30.53,56.00 30.98,55.25 31.46,54.50 31.96,53.75 32.50,53.00 33.07,52.25 33.68,51.50 34.34,50.75 35.06,50.00 35.86,49.25 36.77,48.50 37.90,47.75 40.00,47.00"/></g>
  <path d="M40 105.5 L40 109.5" stroke="#1a1006" stroke-width="1.2" stroke-linecap="round"/>
  <ellipse cx="40" cy="36" rx="12.5" ry="13" fill="url(#thx)" stroke="#3a220c" stroke-width=".9"/>
  <g stroke="#f1d38e" stroke-opacity=".5" stroke-width=".8" stroke-linecap="round"><path d="M31 28 l-2 -3M35 25 l-1 -3M45 25 l1 -3M49 28 l2 -3M29 36 l-3 0M51 36 l3 0M31 44 l-2 2M49 44 l2 2"/></g>
  <ellipse cx="40" cy="47" rx="5.5" ry="2.5" fill="#2a180a"/>
  <ellipse cx="40" cy="19" rx="8.6" ry="8.2" fill="url(#head)" stroke="#120a03" stroke-width=".9"/>
  <ellipse cx="34" cy="18" rx="3" ry="5" fill="#241609" transform="rotate(-12 34 18)"/><ellipse cx="46" cy="18" rx="3" ry="5" fill="#241609" transform="rotate(12 46 18)"/>
  <ellipse cx="33.3" cy="16.4" rx=".7" ry="1.2" fill="#fff" fill-opacity=".14"/><ellipse cx="45.3" cy="16.4" rx=".7" ry="1.2" fill="#fff" fill-opacity=".14"/>
  <circle cx="38.2" cy="13.4" r=".6" fill="#6e5024"/><circle cx="41.8" cy="13.4" r=".6" fill="#6e5024"/><circle cx="40" cy="12.2" r=".6" fill="#6e5024"/>
  <path d="M37 12.5 L34 6 L27 2" fill="none" stroke="#1a1006" stroke-width="1.1" stroke-linecap="round"/><path d="M43 12.5 L46 6 L53 2" fill="none" stroke="#1a1006" stroke-width="1.1" stroke-linecap="round"/>
  <g class="w hl" style="transform-origin:31px 41px"><path d="M31 41 C20 45 2 51 -3 60 C-6 67 3 70 12 64 C22 57 29 50 31 41 Z" fill="url(#wing)" stroke="#5d6470" stroke-opacity=".35" stroke-width=".7"/><path d="M30 42 C20 45 8 51 -1 59 M29 45 C21 49 12 55 5 62" fill="none" stroke="#6b7280" stroke-opacity=".3" stroke-width=".45"/></g>
  <g class="w hr" style="transform-origin:49px 41px"><path d="M49 41 C60 45 78 51 83 60 C86 67 77 70 68 64 C58 57 51 50 49 41 Z" fill="url(#wing)" stroke="#5d6470" stroke-opacity=".35" stroke-width=".7"/><path d="M50 42 C60 45 72 51 81 59 M51 45 C59 49 68 55 75 62" fill="none" stroke="#6b7280" stroke-opacity=".3" stroke-width=".45"/></g>
  <g class="w fl" style="transform-origin:31px 36px"><path d="M31 36 C16 22 -10 26 -17 42 C-21 52 -10 62 5 58 C20 54 30 47 31 36 Z" fill="url(#wing)" stroke="#5d6470" stroke-opacity=".45" stroke-width=".8"/><path d="M30 37 C18 33 2 34 -13 42 M30 39 C18 38 4 41 -9 50 M29 42 C19 43 8 48 -2 55 M14 34 L12 46 M2 36 L0 49" fill="none" stroke="#6b7280" stroke-opacity=".38" stroke-width=".5"/></g>
  <g class="w fr" style="transform-origin:49px 36px"><path d="M49 36 C64 22 90 26 97 42 C101 52 90 62 75 58 C60 54 50 47 49 36 Z" fill="url(#wing)" stroke="#5d6470" stroke-opacity=".45" stroke-width=".8"/><path d="M50 37 C62 33 78 34 93 42 M50 39 C62 38 76 41 89 50 M51 42 C61 43 72 48 82 55 M66 34 L68 46 M78 36 L80 49" fill="none" stroke="#6b7280" stroke-opacity=".38" stroke-width=".5"/></g>
  </g>
</svg>